<?xml version="1.0" encoding="UTF-8" standalone="no"?>
<!-- Created with Inkscape (http://www.inkscape.org/) -->

<svg
   version="1.1"
   id="svg3767"
   width="256"
   height="256"
   viewBox="0 0 256 256"
   sodipodi:docname="carli-logo.svg"
   inkscape:version="1.1 (c4e8f9ed74, 2021-05-24)"
   inkscape:export-filename="/home/erik/CARLI/carli-calamares-config/etc/calamares/branding/default/logo.png"
   inkscape:export-xdpi="96"
   inkscape:export-ydpi="96"
   xmlns:inkscape="http://www.inkscape.org/namespaces/inkscape"
   xmlns:sodipodi="http://sodipodi.sourceforge.net/DTD/sodipodi-0.dtd"
   xmlns="http://www.w3.org/2000/svg"
   xmlns:svg="http://www.w3.org/2000/svg"
   xmlns:rdf="http://www.w3.org/1999/02/22-rdf-syntax-ns#"
   xmlns:cc="http://creativecommons.org/ns#"
   xmlns:dc="http://purl.org/dc/elements/1.1/">
  <metadata
     id="metadata3773">
    <rdf:RDF>
      <cc:Work
         rdf:about="">
        <dc:format>image/svg+xml</dc:format>
        <dc:type
           rdf:resource="http://purl.org/dc/dcmitype/StillImage" />
      </cc:Work>
    </rdf:RDF>
  </metadata>
  <defs
     id="defs3771" />
  <sodipodi:namedview
     pagecolor="#ffffff"
     bordercolor="#666666"
     borderopacity="1"
     objecttolerance="10"
     gridtolerance="10"
     guidetolerance="10"
     inkscape:pageopacity="0"
     inkscape:pageshadow="2"
     inkscape:window-width="1920"
     inkscape:window-height="1021"
     id="namedview3769"
     showgrid="false"
     inkscape:zoom="2.0023256"
     inkscape:cx="-43.449477"
     inkscape:cy="91.393727"
     inkscape:window-x="0"
     inkscape:window-y="0"
     inkscape:window-maximized="1"
     inkscape:current-layer="svg3767"
     inkscape:pagecheckerboard="0"
     width="256px"
     height="256px" />
  <g
     id="g16"
     transform="matrix(0.61699941,0.03549252,0.04637371,0.6342207,-3.1273355,57.705641)">
    <path
       style="fill:#1793d1;fill-opacity:1"
       d="m 227.82422,4.59375 c -12.09035,0.0151 -24.28951,8.019982 -30.04688,19.714844 -2.71521,5.515378 -3.3271,8.541949 -5.49218,27.197265 -2.93171,25.260886 -4.7672,37.758288 -8.07813,54.990231 -1.37379,7.15 -2.77648,17.11923 -3.11719,22.15235 -0.60267,8.90291 -0.54986,9.22161 1.97852,11.75 5.43261,5.43261 11.96685,2.67293 15.22266,-6.42969 1.21046,-3.3842 7.34262,-39.789376 7.44921,-44.222656 0.01,-0.4125 0.67665,-0.75 1.48243,-0.75 0.80579,0 4.00153,3.80896 7.09961,8.464844 8.18903,12.306672 18.26508,23.506882 27.1582,30.185542 8.96428,6.73208 19.12901,12.12764 24.48242,12.9961 3.20669,0.52022 4.11234,0.19234 6.75,-2.44531 1.67551,-1.67552 3.04492,-3.99189 3.04492,-5.14649 0,-3.67671 -7.80503,-10.93424 -15.8789,-14.76562 -9.89551,-4.69583 -18.57875,-13.54568 -26.8711,-27.384769 -8.43799,-14.08214 -8.36037,-15.868383 0.91992,-21.50586 11.0445,-6.709182 17.04346,-17.211426 19.07813,-33.398437 0.90908,-7.232241 0.81539,-9.363441 -0.62891,-14.291016 C 249.08752,10.482351 240.61313,4.57778 227.82422,4.59375 Z m 2.98242,17.349609 c 1.12569,-0.03752 1.9817,0.290875 2.44531,1.041016 1.61028,2.605489 0.58747,13.155237 -1.77539,18.316406 -2.52921,5.524509 -8.852,11.654949 -14.06445,13.636719 -3.89069,1.479237 -4.42749,1.375248 -7.19922,-1.396484 -4.83633,-4.836329 -2.32848,-13.802221 6.39844,-22.875 5.00362,-5.201917 10.81824,-8.610095 14.19531,-8.722657 z"
       id="path3811" />
    <path
       style="fill:#6790eb;fill-opacity:1"
       d="M 40.335001,140.34604 C 33.163106,138.14473 24.011056,128.69915 20.504164,119.87918 15.885903,108.26406 14.44932,98.44437 15.049557,82.594474 15.626343,67.363833 17.102908,60.334539 21.806559,50.427285 29.554678,34.107496 44.694831,25.947842 58.901673,30.435194 c 6.811887,2.151592 15.637601,8.070059 18.579361,12.459205 5.48504,8.183734 0.17255,17.04279 -9.722614,16.213348 -0.825,-0.06915 -4.722633,-1.799828 -8.661407,-3.845942 -4.522733,-2.765413 -6.274731,-4.143034 -10.8113,-1.979695 -7.188538,3.427975 -12.052324,19.7584 -11.232703,37.714406 0.720818,15.791434 5.420407,27.000004 11.320707,27.000004 3.168055,0 3.774249,-1.40389 4.446594,-10.29791 0.688576,-9.10873 2.389467,-11.550562 8.628613,-12.387407 4.644672,-0.622982 9.61676,1.522408 11.4449,4.938317 2.60186,4.86163 0.57925,18.29195 -4.178716,27.747 -6.189232,12.29928 -15.435396,16.32272 -28.380107,12.34952 z"
       id="path3807" />
    <path
       style="fill:#1793d1;fill-opacity:1"
       d="m 125.37695,28.251953 c -0.71286,-0.0099 -1.46057,0.02561 -2.25586,0.09961 -13.61967,1.267283 -18.38224,8.241873 -23.812496,34.88086 -5.25878,25.797713 -6.89121,38.806047 -6.97461,55.589847 -0.03165,6.36529 -2.569546,14.1938 3.189454,18.25 5.981122,5.35507 14.809172,3.10996 17.072262,-4.3418 0.54025,-1.7789 1.23945,-7.68797 1.55469,-13.13281 0.31523,-5.44484 0.78281,-10.11094 1.03906,-10.36719 0.25625,-0.25625 1.90782,0.0368 3.66797,0.65039 1.76015,0.61359 7.80216,1.11523 13.42774,1.11523 6.96274,0 10.55946,0.39909 11.26562,1.25 0.57054,0.6875 2.00411,5.03675 3.18555,9.66407 2.66791,10.44934 5.22881,15.57699 8.77734,17.57226 3.37327,1.89672 9.65164,1.3608 12.31641,-1.05078 3.12742,-2.83028 4.01371,-7.85597 2.33594,-13.24219 -0.80404,-2.58126 -2.35359,-8.96836 -3.44532,-14.19336 -6.66717,-31.908953 -17.57309,-60.738156 -27.93554,-73.847651 -5.18183,-6.555494 -8.41819,-8.827321 -13.40821,-8.896486 z m -0.38086,28.257813 c 1.99076,0.204777 12.76172,25.757367 12.76172,30.546875 0,1.757683 -0.74805,1.939453 -7.94336,1.939453 -7.07475,0 -8.11351,-0.243165 -9.5,-2.222656 -2.32232,-3.315578 -1.91414,-11.527252 1.04102,-20.97461 1.42822,-4.565892 2.99272,-8.718955 3.47656,-9.228516 0.0453,-0.0477 0.0999,-0.06715 0.16406,-0.06055 z"
       id="path3805" />
    <path
       style="fill:#b3b3b3"
       d="m 372.6563,137.74548 c -1.95958,-1.29819 -4.59559,-4.57872 -6.22738,-7.75 -3.18145,-6.18295 -3.16818,-4.02674 -0.23065,-37.498964 2.44588,-27.870042 4.18663,-38.917596 7.18491,-45.598654 2.96405,-6.604785 9.15725,-12.901346 12.68956,-12.901346 4.71452,0 10.62375,8.870129 10.65912,16 0.01,1.925 -1.30308,6.894411 -2.91695,11.043136 -5.67596,14.591021 -7.40429,26.019708 -7.55484,49.956868 -0.11221,17.84203 -0.4153,22.03233 -1.78145,24.62882 -2.63612,5.0102 -6.43224,5.69098 -11.82232,2.12014 z"
       id="path3801" />
    <path
       style="fill:#efb70e;fill-opacity:1"
       d="m 306.25842,134.89557 c -5.5,-0.4516 -11.93119,-1.55799 -14.29153,-2.45864 -7.89844,-3.01386 -7.61864,-1.09285 -7.31267,-50.206037 0.15813,-25.381083 0.68133,-44.626194 1.25435,-46.139006 2.48701,-6.565859 9.04698,-9.596153 14.57987,-6.734984 6.29604,3.255809 6.26998,3.085173 6.26998,41.057377 0,24.609024 0.34222,35.23922 1.19469,37.11018 2.11878,4.65023 5.31856,5.47206 21.30531,5.47206 15.8001,0 18.7896,0.74065 21.8515,5.4137 2.50441,3.82221 2.13068,9.77397 -0.81319,12.95046 -1.35393,1.46092 -3.63323,3.10163 -5.0651,3.64603 -3.01219,1.14523 -24.4153,1.08419 -38.97321,-0.11114 z"
       id="path3777" />
  </g>
</svg>
